<?xml version="1.0" encoding="utf-8"?>
<!-- Generator: Adobe Illustrator 27.1.0, SVG Export Plug-In . SVG Version: 6.00 Build 0)  -->
<svg version="1.1" id="Calque_0_xA0_Image_00000088123108574381849460000013825938115438487424_"
	 xmlns="http://www.w3.org/2000/svg" xmlns:xlink="http://www.w3.org/1999/xlink" x="0px" y="0px" viewBox="0 0 447 459.8"
	 style="enable-background:new 0 0 447 459.8;" xml:space="preserve">
<style type="text/css">
	.st0{fill:#FFFFFF;}
	.st1{fill:#F7F7F7;}
	.st2{fill:#FEFCFB;}
	.st3{fill:#FEFCFA;}
	.st4{fill:#FDFCFA;}
	.st5{fill:#FCFBF8;}
	.st6{fill:#8B8B8B;}
	.st7{fill:#040404;}
	.st8{fill:#202020;}
	.st9{fill:#868686;}
	.st10{fill:#F6F6F6;}
	.st11{fill:#222222;}
	.st12{fill:#050505;}
	.st13{fill:#888888;}
	.st14{fill:#CECECE;}
	.st15{fill:#878787;}
	.st16{fill:#212121;}
	.st17{fill:#060606;}
	.st18{fill:#898989;}
	.st19{fill:#CCCCCB;}
	.st20{fill:#252525;}
	.st21{fill:#262626;}
	.st22{fill:#CFCFCE;}
	.st23{fill:#8D8D8D;}
	.st24{fill:#D0D0D0;}
	.st25{fill:#888887;}
	.st26{fill:#A7782E;}
	.st27{fill:#7E643C;}
	.st28{fill:#5E4829;}
	.st29{fill:#A37731;}
	.st30{fill:#A07634;}
	.st31{fill:#9A7438;}
	.st32{fill:#FBF7F2;}
	.st33{fill:#9F7634;}
	.st34{fill:#634C2C;}
	.st35{fill:#F8F2E8;}
	.st36{fill:#9B7437;}
	.st37{fill:#6E5633;}
	.st38{fill:#644D2D;}
	.st39{fill:#AB7C33;}
	.st40{fill:#AC7C32;}
	.st41{fill:#634D2C;}
	.st42{fill:#F8F3EA;}
	.st43{fill:#644E2E;}
	.st44{fill:#FAF7F2;}
	.st45{fill:#F7F1E8;}
	.st46{fill:#B48338;}
	.st47{fill:#AB7C32;}
	.st48{fill:#AB7D34;}
	.st49{fill:#FBF8F4;}
	.st50{fill:#130E05;}
	.st51{fill:#0E0A04;}
	.st52{fill:#503B1B;}
	.st53{fill:#4F3B1A;}
	.st54{fill:#463519;}
	.st55{fill:#4D391A;}
	.st56{fill:#251C0C;}
	.st57{fill:#745B36;}
	.st58{fill:#513C1C;}
	.st59{fill:#69512F;}
	.st60{fill:#291D0B;}
	.st61{fill:#4F3B1B;}
	.st62{fill:#382911;}
	.st63{fill:#9E7431;}
	.st64{fill:#503C1C;}
	.st65{fill:#F6F3ED;}
	.st66{fill:#503C1B;}
	.st67{fill:#9C722F;}
	.st68{fill:#AC8240;}
	.st69{fill:#513D1C;}
	.st70{fill:#443318;}
	.st71{fill:#A97F3D;}
	.st72{fill:#9C7230;}
	.st73{fill:#644D29;}
	.st74{fill:#493619;}
	.st75{fill:#32240E;}
	.st76{fill:#2E220D;}
	.st77{fill:#A17B40;}
	.st78{fill:#F8F3EC;}
	.st79{fill:#060504;}
	.st80{fill:#070707;}
	.st81{fill:#705834;}
	.st82{fill:#362710;}
	.st83{fill:#828282;}
	.st84{fill:#523D1C;}
	.st85{fill:#4E3A1B;}
	.st86{fill:#533E1D;}
	.st87{fill:#453419;}
	.st88{fill:#7D5E2C;}
	.st89{fill:#181208;}
	.st90{fill:#201709;}
	.st91{fill:#403426;}
	.st92{fill:#4E3A1A;}
	.st93{fill:#443927;}
	.st94{fill:#4B381B;}
	.st95{fill:#463A28;}
	.st96{fill:#1D170F;}
	.st97{fill:#4A371A;}
	.st98{fill:#34250F;}
	.st99{fill:#231B11;}
	.st100{fill:#2D200D;}
	.st101{fill:#4F3A1B;}
	.st102{fill:#1D170D;}
	.st103{fill:#4F3A1A;}
	.st104{fill:#453319;}
	.st105{fill:#3C2B11;}
	.st106{fill:#2C200D;}
	.st107{fill:#30230D;}
	.st108{fill:#835E24;}
	.st109{fill:#392A11;}
	.st110{fill:#3A2A11;}
	.st111{fill:#2A1E0C;}
	.st112{fill:#3B2B12;}
	.st113{fill:#796039;}
	.st114{fill:#775E38;}
	.st115{fill:#8C662C;}
	.st116{fill:#755C36;}
	.st117{fill:#B99257;}
</style>
<g>
	<g>
		<path class="st0" d="M77.9,0.1c121.8,0,243.7,0,365.5-0.1c2.7,0,3.5,0.4,3.5,3.4c-0.1,151.1-0.1,302.1,0,453.2
			c0,2.7-0.6,3.2-3.3,3.2c-146.8-0.1-293.6-0.1-440.4,0c-2.5,0-3.3-0.2-3.3-3.2C0.1,305.4,0.1,154.2,0,3.1C0,0.5,0.6,0,3.1,0
			c23.2,0.1,46.4,0.1,69.6,0.1c0.3,0.4,0.2,0.7-0.1,1c-1,0.7-2.2,0.6-3.4,0.8c-8.8,1.2-17.5,2.7-25.7,6.3c-19.6,8.5-33,22.8-40,43
			c-2.3,6.5,0,10.4,6.6,11.9c12.6,2.8,24.3,7.3,34.4,15.6c9.7,7.9,16,17.6,17.3,30.3c0.1,1.2,0.5,2.4,0.6,3.7c0,1.2,0,2.3,0,3.5
			c-1.4,13.2-6.1,25.4-11.8,37.3c-6.9,14.3-14.3,28.3-21.8,42.2c-12.6,23.5-20.6,48.4-22.7,75c-0.2,2.4-0.7,4.7-0.4,7.1
			c-0.2,1.6-0.3,3.2-0.2,4.8c0,0.4,0,0.8,0,1.2c0,3.4,0,6.8,0,10.1c0,1.6-0.1,3.2,0.2,4.8c0.8,24.4,5.9,47.9,15.8,70.3
			c8.7,19.7,20.4,37.5,36.1,52.3c21.1,19.9,45.9,32.3,75.1,35.4c2.9,0.3,5.7,0.8,8.6,0.6c4.6,0.1,9.1-0.2,13.7,0.1
			c0.5,0,0.9,0.1,1.3,0.3c6,0.8,11.9,0.3,17.9,0.3c5.8,0,11.7,0.5,17.5-0.3c0.4-0.1,0.9-0.2,1.4-0.3c13.4-0.3,26.8,0,40.3-0.1
			c3.8-0.2,5.6-2.7,7-5.8c0.7-1.5,0.5-3.1,0-4.6c-0.4-2-0.8-3.9-1.1-5.9c-2.4-14.1-11.1-22.4-24.4-26.3c-2.4-0.7-4.8-1.2-7.3-1.8
			c-1.3-0.3-2.9-0.5-3.3-2c-0.5-1.7,0.9-2.5,2-3.3c7.7-6.1,14.3-13.2,19.7-21.4c6.7-10.2,10.5-21.4,12-33.5c0.2-1.7,0.5-3.4,1.1-5.1
			c0.6-1.4,0.5-2.9,0.5-4.4c0-1.3,0-2.6-0.4-3.9c-0.1-4.1,0.4-4.7,4.1-3.8c9.9,2.4,19.3,6.1,26.9,13.2c9,8.5,10.5,19.1,7.4,30.6
			c-3.7,13.8-12.7,23.4-24.4,30.8c-1.3,0.7-2.6,1.3-3.9,2c-2.2,1-4.1,2.2-5.8,4c-2.5,2.6-3.4,5.5-1.4,8.8c0.9,1.7,2.2,2.7,4.1,3.2
			c0.7,0.2,1.4,0.3,2.1,0.3c1.4,0,2.8,0,4.2,0c4.4,0,8.9,0,13.3,0c1.8,0,3.5-0.1,5.3,0.2c7.1,0.7,14.3,1.3,21.1,4
			c2.2,0.9,4.3,1.8,6.1,3.4c1.1,1,2.3,2,1.6,3.8c-1.5,1.5-3.5,1.1-5.3,1.1c-10.3,0.2-20.6-0.3-30.9,0.3c-5.9,2.4-7.9,6.6-5.3,11.2
			c1.2,2,3,2.9,5.1,3.5c15.9,0.4,31.8,0.3,47.7,0c4.1-0.4,5.9-3.2,7.2-6.6c0.8-1.9,0.6-3.8,0-5.7c-1.2-4.3-2.3-8.6-5.2-12.3
			c-4.4-5.8-10.6-9-17.2-11.4c-5.9-2.2-12-3.3-18.2-4.3c-4-0.7-4.7-2.4-2-5.1c10.4-10.5,15.9-23.4,17.8-37.9c0.6-2.2,0.6-4.4,0-6.6
			c-1.6-8.3-3.9-16.2-9.5-22.9c-6.4-7.7-14.4-12.9-23.5-16.7c-6.7-2.8-13.6-5-20.7-6.3c-2.8-0.5-4.3-2-5.1-4.7
			c-2.4-8.2-5.6-16-10.7-22.9c-0.8-1.1-2.7-2.8,0-4.2c3.1,1.2,4.5,4.4,7.3,5.9c16.6,13.7,36,19.3,57.1,20.4c3.7-0.1,7.3,0.2,11-0.2
			c4.4,0.1,8.7-0.4,13-1c5.8-0.8,6.9-0.2,9.1,5.1c6.5,16.5,15.7,31.4,27.7,44.5c2.9,3.1,6.5,5.5,9.4,8.6c0.6,0.5,1.2,0.9,1.8,1.3
			c4,3.1,8.1,5.8,12.7,7.7c3.9,1.6,7.7,1.7,11.7,0.4c4.3-1.5,8.1-3.8,11.8-6.4c14.6-10.4,24.9-24.2,32-40.5
			c4.2-9.7,8.3-19.5,12.8-29.1c5.4-11.6,3.7-22.8-2.9-33.4c-11.5-18.6-28.6-28.2-49.7-31.4c-2.8-0.4-5.7-0.8-8.5-1.1
			c-1.2-0.4-2.5-0.5-3.8-0.4c-1.3,0-2.5,0-3.8,0.4c-9.9,1.6-19.6,3.5-28.5,8.3c-8.3,4.5-15.6,10.2-21,18.1c-3,4.3-4.1,4.4-9.1,2.8
			c-11.7-3.7-21.2-10.9-30.1-18.9c-8.6-7.7-16.8-15.9-26.5-22.3c-1-0.7-2-1.5-2.6-2.6c-0.2-2.8,1.6-2,3.2-1.9
			c3.7,0.2,7.3,0.6,10.9-0.7c1.8,0.3,3,1.6,4.5,2.6c10.2,6.4,21.1,10.5,33.2,11.2c1.5,0.5,3,0.5,4.5,0.4c0.6,0,1.2,0,1.7,0
			c1.7,0,3.5,0.1,5.1-0.4c2.1-0.3,4.2-0.6,6.3-0.6c4.7,2.2,9.4,0.8,13.9-0.2c6.8-1.5,13.1-4.6,18.4-9.4c1.5-1.4,2.9-2.7,3.4-4.8
			c1.2-2.3,3.5-3.5,5.5-4.9c6.4-4.9,11.5-10.9,15.7-17.8c0.5-0.8,1-1.7,1.8-2.3c2.2-0.8,3.1-2.7,3.9-4.7c4.2-10,1.5-21.6-8.6-28.2
			c-2.7-1.8-5.3-3.9-8.7-3.9c-3.4-1.1-5.1-4.4-7.7-6.5c-1.1-0.9-2.1-2.1-3.1-3.1c-0.4-0.4-0.8-0.7-1.2-1.1
			c-17.8-17.3-39.4-25.9-63.9-27.7c-0.5,0-1-0.1-1.5-0.2c-3.1-0.8-6.4,0.2-9.5-0.7c-2.3-2.2-2.2-5.2-2.4-7.9
			c-0.5-9.3-5.1-16.2-12.1-21.7c-0.8-0.7-1.7-0.9-2.8-0.7c-1.5-0.4-2.1-1.7-2.8-2.8c-2.1-3.1-5.2-5-8.4-6.5c-4.3-2-8.2-0.8-11.9,1.6
			c-1.4,1-2.6,2.4-4.3,2.9c-3.8,0.3-6.4,3.1-9.6,4.8c-10.1,5.4-18.9,12-23.1,23.6c-2.4,6.6-3.7,13.1-4.4,20.1
			c-0.8,7,0.3,13.5,1.3,20.2c-0.8,6.3-2.7,12.4-3.7,18.7c-1.3,7.7-2.2,15.5-2.6,23.4c-0.4,1.5-0.2,3.1-1.4,4.3
			c-3.5,1.4-6.9,0.8-10.4-0.2c-3.9-1-7.8-0.7-11.7-0.2c-10.7,1.5-21.4,3.4-31.5,7.6c-1.2,0.5-2.8,1.2-3.9,0
			c-1.3-1.4-0.1-2.8,0.6-4.1c9.7-17.3,18.4-35,24.9-53.8c5.2-15.2,9.6-30.6,10.9-46.8c0-0.6,0.2-1.2,0.4-1.8
			c1.5-3.9,1.4-7.7,0.1-11.6c-0.9-4.3-1.1-8.6-2-12.9c-4.4-21.6-16.1-38.5-33.6-51.6C121.8,10.9,102.9,4.6,82.3,2.3
			C81.2,2,80,1.7,78.7,1.5c-0.3-0.1-0.6-0.3-0.9-0.5C77.6,0.7,77.7,0.4,77.9,0.1z"/>
		<path class="st1" d="M77.9,0.1c0,0.2,0,0.4,0,0.6c-1.2,1.3-2.7,1.1-4.3,0.8c-0.4-0.2-0.8-0.4-1-0.8c0-0.2,0-0.4,0-0.6
			C74.4,0.1,76.2,0.1,77.9,0.1z"/>
		<path d="M73.4,0.9c1.5-0.1,3-0.2,4.5-0.2l-0.1,0.2c1.2,0.7,2.7-0.1,3.9,0.6C90,2,98.1,3.6,106,6c10.3,3.1,19.9,7.5,28.8,13.5
			c17.3,11.7,29.9,26.9,36.2,47c2.1,6.8,3.6,13.9,3.6,21.1c1.6,4,1.6,8,0,12c-0.4,13.3-3.9,26.1-7.6,38.7
			c-5.8,19.7-14.5,38.1-24,56.2c-1.9,3.7-4.1,7.2-5.9,11.3c11.4-4.3,23-7.3,35.1-8.3c4-0.4,8-0.4,12,0c3.4,1.1,6.9,1,10.4,0.8
			c1.1-1.1,0-2.6,0.7-3.7c-0.6-3.7,0.1-7.4,0.4-11.1c1-10.6,3.6-21,5.7-31.4c0.1-4.6,2.1-8.8,3.4-13.1c1.4-4.1,2.8-8.1,4.6-12
			c3.4-7.9,7.3-15.4,11.5-22.9c2.7-3.9,5.2-7.9,8.2-11.6c2.9-3.2,4.9-7.3,8.9-9.3c2.4-2.1,4.9-4.4,8-5.2c6-1.6,13.5,1.6,17.3,7.4
			c0.7,1.1,1.5,2.1,2.2,3.1c2.4,1.2,3,3.7,4.3,5.8c0.6,1.3,1.3,2.5,1.9,3.8c2.4,4.9,4,10.2,5.7,15.4c0.9,1.7,0.1,4.4,3.1,4.7
			c0.4,0.1,0.8,0.2,1.1,0.4c3.6,0.7,7.3-0.3,10.9,0.5c13.4,0.7,26.1,3.6,38.3,9.4c8.2,3.9,15.8,8.6,22.8,14.2
			c1.8,1.4,3.1,3.2,4.7,4.9c-0.9,0.5,0.4,2.2-0.9,2.3c0.6-0.1,1-1,1.6-1.6c3.5,3.3,6.9,6.6,10.4,9.9c1.9,0.3,2.3,2.3,3.5,3.3
			c1,1,1.7,2.2,2.6,3.2c4.4,5.5,8,11.3,9.7,18.3c0.2,1.9,1,3.7,0.6,5.7c-0.8,2.4-0.8,5-2.8,6.9c-5.3,10.3-13.3,18.1-22.6,24.6
			c-0.6,1.4-1.7,2.4-3,3.2c-8.2,5.2-16.9,9.3-26.4,11.7c-2.1,0.5-4.3,1.1-6.6,0.3c-2.2,0.9-4.5,0.4-6.7,0.7
			c-1.7,0.7-3.6-0.3-5.3,0.6c-0.4,0-0.9,0-1.3,0c-1.5-0.8-3.1,0.1-4.6-0.6c-14.3-0.4-26.7-6-38.2-14.2c-2,0.3-2.7-1.7-4.2-2.4
			c-1.1-0.8-2.1-1.7-3.1-2.7c-1.6-1.6-3.1-3.2-4.7-4.7c-3.3-3.2-4.9-3.6-8.8-1.6c-1.9,1-4.9,1.8-5,3.9c-0.1,2.3,3.1,2.7,4.9,3.8
			c1.3,0.8,2.4,1.8,3.8,2.3c1.5,0.9,2.8,1.8,3.7,3.3c10.8,7.5,20.4,16.4,30.1,25.2c8.9,8.1,18.7,15,30.4,18.6c2.3,0.7,4,1,5.8-1.7
			c10-14.9,24.4-23,41.8-26.3c3.1-0.6,6.2-1.1,9.3-1.6c1.2-0.4,2.5-0.1,3.8-0.2c1.3,0.1,2.5-0.2,3.8,0.3c9.2,0.3,18.1,2,26.6,5.4
			c16.8,6.8,29.6,18.3,36.6,35.2c3.8,9,3.1,18.5-1.4,27.3c-5.7,11.4-9.8,23.5-15.5,34.8c-4.7,9.2-10.5,17.9-18.1,25
			c-6.8,6.3-13.8,12.5-22.9,15.7c-4.6,1.6-9,1.6-13.4-0.5s-8.8-4.4-12.3-8c-0.4-0.5,0-1.5-0.2-1.6c-0.6-0.3-0.7,0.7-1.3,0.8
			c-15.3-12.4-26.1-28.3-34.4-45.9c-1.3-2.7-2.3-5.5-3.5-8.3c-1.9-4.4-3.5-5-8.3-4.1c-4,0.7-8,1.8-12.1,0.7c-4,0.8-8.1-0.3-12.1,0.6
			c-21.3-1.1-41-6.8-57.6-21c-0.8-1.6-0.9-3.6-2.4-4.9c-1-0.9-0.8-1.9,0-2.9c0.1-0.1,1.7-0.6,0.1-0.9c-0.1,0-1.4-1.5-1.2,0.4
			c0.1,1.7-1.1,2.3-2.6,2.5c-0.4,0.1-1.5-0.8-1,0.9c0.8,2.4,2.7,4,3.9,6.1c3.7,6,6.3,12.4,8.1,19.1c0.9,3.2,2.6,4,5.2,4.5
			c14.6,2.9,28.2,8.1,39.5,18.1c7,6.3,11.3,14.3,13.1,23.6c0.3,1.5,0.6,3.1,0.9,4.6c0.4,2.3,0.4,4.6,0,6.9
			c-1.1,11.8-5.2,22.4-12.2,31.9c-1.9,2.6-4,4.9-6.4,7.1c-0.7,0.6-1.2,1.3-0.8,2.3c0.4,0.9,1.3,0.4,2,0.5c11.4,1.7,22.5,4,32,11.1
			c6.1,4.5,8.9,10.8,10.2,18c0.4,2,0.4,4.1,0,6.1c-1.5,3-2.4,6.7-6.8,6.8c-8.7,0.6-17.4,0.2-26.1,0.2c-8.1,0-16.1,0.4-24.2-0.2
			c-3.9-0.8-5.5-3.7-5.9-7.2c-0.5-4.5,2-7.1,5.9-8.7c11.4-0.6,22.9-0.1,34.3-0.3c1.1,0,2.8,1,3.3-1.2c-4.6-5.7-11.5-6.4-17.9-8.2
			c-3.5-1-7.2,0-10.7-1.3c-1.8-1.1-3.7-0.2-5.6-0.5c-4.4,0-8.8,0-13.2,0c-1.7,0.1-3.4-0.3-5.1,0.3c-0.6,0.1-1.3,0.3-1.5-0.5
			c-1.1-1.4,0.5-2.7,0-4.2c-1.6-0.1-2.7,1.6-4.4,1.1c-3.9-4.9-0.2-9.6,4.5-12.7c0.9-0.6,1.9-0.9,2.8-1.4c0.3,0.1,0.7,0.1,1.1,0.2
			c2.4,0.3,2.4,0.3,2.6-1.9c4.5-3.5,9.2-6.8,13.1-11c8.5-9.2,13.2-19.9,12.3-32.4c-0.8-10.8-7.5-18.1-16.8-23
			c-6.6-3.5-13.5-6.2-21-7.5c-0.6,1.1-0.3,2.4-0.2,3.6c0.5,1.2,0.2,2.6,0.3,3.8c-0.1,1.5,0.3,3-0.3,4.5c-1.9,11.5-3.9,22.9-9.7,33.4
			c-6,10.9-14.1,19.9-23.6,27.7c-0.7,0.6-2.3,0.8-1.9,1.8c0.4,1,1.8,1.3,3,1.5c6.8,0.9,13.1,3.2,18.8,6.8
			c8.3,5.1,12.3,13.2,13.9,22.5c0.3,1.9,1.2,3.7,0.8,5.8c0.5,1.5,0.5,3.1,0,4.7c-0.8,3.3-3,5.3-6,6.5c-12.1-0.6-24.3-0.1-36.4-0.2
			c-2.1,0-4.2-0.3-6.3,0.2l0.1,0.2c-12.2,0.4-24.5,0.4-36.7,0l0.1-0.2c-5-0.5-10-0.4-15,0c-12.6,0-24.8-2.8-36.6-7
			C89.5,446.3,77,439,65.5,429.9c-16.6-13-29.1-29.3-39.1-47.7C18,365.5,11.6,347.8,8.3,329c-1.5-8.2-3-16.3-3-24.7
			c0-1.9-1.6-3.7-0.1-5.6c-0.5-1.5-0.2-3.1-0.3-4.6c-0.1-3.7,0.3-7.5-0.3-11.2c-0.1-0.2-0.1-0.4,0-0.7c0.7-1.5-0.1-3.1,0.6-4.6
			c-1.9-3.6,0-7.3,0.3-10.8c0.9-9.5,2.5-19,5-28.2c2.7-9.7,5.9-19.2,10.1-28.4c9.2-20,20.6-38.9,29.8-58.9
			c4.6-10.2,9.1-20.5,10.3-31.8c0.1-1.2,0.6-2.3,0.8-3.5c0.4-1.3,0.4-2.5,0-3.8c-1.1-8.3-2.9-16.5-8.1-23.3
			c-7.7-9.9-17.9-16.7-29.8-21c-5.1-1.8-10.3-3.3-15.6-4.3C4.2,62.9,0.2,58,1.9,52.7C5,43,9.8,34.3,16.6,26.5
			c10.3-11.9,23.1-19.3,38.1-23c4.7-1.2,9.5-1.7,14.2-2.5C70.4,1.4,71.9,1.4,73.4,0.9z"/>
		<path class="st2" d="M238.2,83.2c-2.7,3.2-5.5,6.5-8.2,9.7c-3.3,3.4-7.3,6-10.8,9c-4.7,4-7.7,9-9.7,14.8
			c-2.6,7.3-3.6,14.8-3.6,22.6c-1.4,4.3-2.9,8.5-4.3,12.8c-1.9-4.2-2-9-2.2-13.4c-0.2-4.2,0.5-8.9,1.1-13.2
			c1.1-8.1,4.9-15.4,8.8-22.6c2-3.6,5.1-6.1,8.3-8.4c5.8-4.2,12.1-7.8,18.5-11C236.6,83.2,237.4,83.3,238.2,83.2z"/>
		<path class="st3" d="M383.4,195.5c0.7-2.3,1.4-4.5,2-6.8c0.9-6.6,1.4-13.2-3.4-18.8c-2.1-3.9-5.3-6.5-9.3-8.1
			c-1.6-0.8-1.8-2.6-3-3.7c0.8-2.6,2-0.2,2.7,0c5.1,1.1,9.4,4.5,12.3,8.2c5.1,6.7,7,14.6,3.7,23c-0.7,1.9-1.5,3.6-2.6,5.3
			C385.3,195.5,384.6,196.2,383.4,195.5z"/>
		<path class="st4" d="M324.9,235.2c13.2-2,25-7.6,35.9-15.2c0.3,2.1-0.9,3.6-2.4,4.8c-5,4-10.1,7.4-16.5,9.3
			c-3.6,1.1-7.2,1.2-10.7,2.3C329.2,237.1,326.8,237.1,324.9,235.2z"/>
		<path class="st4" d="M280.7,119h-0.3H280c-1.5-4.5-2-9.3-3.1-13.9c-1.1-4.5-3.6-8-7.4-10.6c-1.2-2-2.5-4-3.7-6
			c0.2-2,1.4-1.4,2.3-0.7c6.3,4.7,11.1,10.8,12.9,18.3c0.9,3.8,1.4,8.1,1.3,12.2C282,118.9,281.1,118.6,280.7,119z"/>
		<path class="st5" d="M255.3,223.8c-1.3-0.9-2.9-1.3-3.8-2.8c-0.3-0.3-0.3-0.7,0-1c1.6-0.8,3.1,0,4.6,0.3c2.3,0.5,4.4,0.4,6.2-1.1
			c0.8-0.6,1.8-0.2,2.6-0.4c1.7,0.4,2.2,2.3,3.7,3c-0.1,1.1-1,1.9-1.7,1.6c-3.3-1.5-6.8,1.3-10-0.8
			C256.2,222.1,255.5,222.6,255.3,223.8z"/>
		<path class="st6" d="M262,456c16.8,0,33.5,0,50.3,0c-0.5,0.8-1.3,0.7-2,0.7c-15.4,0-30.8,0-46.3,0
			C263.3,456.7,262.5,456.8,262,456z"/>
		<path class="st7" d="M224.6,288.3c0.4-1.2,4.8-1.8,0.4-3.6c1.5-1.6,2.9,0.3,4.2-0.2c0.9-0.4,0.7,0.6,0.5,0.8c-2.3,2.4-0.4,4,1,5.7
			c1,1.2-0.2,2.1-0.1,3.2C228.2,292.7,226.4,290.5,224.6,288.3z"/>
		<path class="st8" d="M192.4,458.1c0.7-0.7,1.6-0.6,2.4-0.6c12.6,0,25.2,0,37.9,0c0.9,0,1.8-0.1,2.4,0.6
			C220.9,458.1,206.6,458.1,192.4,458.1z"/>
		<path class="st9" d="M299.6,438.7c1.3,2.5-1,1.5-1.7,1.5c-5.5,0.1-11,0.1-16.4,0c-6.5,0-13-0.1-19.4-0.1c1.1-1.2,2.6-0.6,3.9-0.6
			c10-0.1,20,0,29.9-0.1C297.1,439.4,298.6,440.1,299.6,438.7z"/>
		<path class="st10" d="M155.7,458.3c12.2,0,24.5,0,36.7,0c-0.7,0.7-1.6,0.6-2.4,0.6c-10.6,0-21.3,0-31.9,0
			C157.3,458.9,156.4,459,155.7,458.3z"/>
		<path class="st7" d="M241.2,425.2c1.7-1,3.3-1.9,5-2.9c1.2,2.2-0.4,4-0.7,6C243.3,428.4,242.1,427.1,241.2,425.2z"/>
		<path class="st11" d="M140.8,458c5-1,10-1,15,0C150.8,458.1,145.8,458.1,140.8,458z"/>
		<path class="st12" d="M359.4,148.2c0,0.8-0.7,1.3-1,1.9c-0.3,0.8-0.2,1.9-1.5,1.7c-0.4-0.1-0.9-0.5-1-0.9
			c-0.3-0.9,0.4-1.3,1.1-1.7c0.3-0.2,1.3,0.1,0.8-0.7c-2-2.7,1.1-0.2,0.9-0.9C358.9,147.7,359.2,148,359.4,148.2z"/>
		<path class="st13" d="M251.7,428.3c4.7,0,9.4,0,14,0c0.3,0.1,0.4,0.2,0.3,0.3c0,0.2-0.1,0.3-0.2,0.3c-4.8,0-9.6,0-14.4,0
			c-0.2-0.2-0.2-0.3-0.1-0.5C251.5,428.4,251.6,428.3,251.7,428.3z"/>
		<path class="st12" d="M252.3,409.4c0.3,1.2,0.6,2.3,1,3.9c-1.6-1.1-3.5-0.8-4.7-2.2C249.8,410.5,250.8,409.6,252.3,409.4z"/>
		<path class="st1" d="M174.6,99.6c1-4,1-8,0-12c0.6,0.1,1.4,0.5,1.3,1.1C175.3,92.4,177.5,96.3,174.6,99.6z"/>
		<path class="st14" d="M184.2,197.6c-4,0-8,0-12,0C176.2,196.6,180.2,196.5,184.2,197.6z"/>
		<path class="st15" d="M288.2,315.1c4-1.4,8.1-0.4,12.1-0.6C296.3,315.9,292.2,315,288.2,315.1z"/>
		<path class="st16" d="M280.7,119c0.2-0.9,1-0.6,1.6-0.8c3.5,0.7,7.2-0.8,10.6,0.8C288.8,119,284.7,119,280.7,119z"/>
		<path class="st11" d="M4.7,283c1.3,3.7,0.3,7.5,0.6,11.3c-0.3,0.3-0.5,0.2-0.6-0.2C4.7,290.5,4.7,286.7,4.7,283z"/>
		<path class="st17" d="M358.6,372.2c0.1-1-0.3-2.3,1.2-2.6c0.4-0.1,1,0.2,1.2,0.6c0.9,1.3-0.9,1.8-1,2.8
			C359.5,372.8,358.8,373,358.6,372.2z"/>
		<path class="st15" d="M294.3,372.2c0-2.3,0-4.6,0-6.9C295.4,367.6,295.4,369.9,294.3,372.2z"/>
		<path class="st18" d="M319,449.3c0-2,0-4.1,0-6.1C320.1,445.2,320,447.2,319,449.3z"/>
		<path class="st11" d="M265.9,428.9c-0.1-0.2-0.1-0.4-0.2-0.6c1.8,0.2,3.7-0.8,5.3,0.8C269.3,429,267.6,429,265.9,428.9z"/>
		<path class="st19" d="M312.9,236.6c1.7-1.3,3.5-0.6,5.3-0.6C316.5,237.2,314.7,236.4,312.9,236.6z"/>
		<path class="st20" d="M73.4,0.9c-1.5,1-3,1-4.5,0c1.2-0.1,2.5-0.2,3.7-0.3C72.9,0.8,73.2,0.9,73.4,0.9z"/>
		<path class="st21" d="M241.1,451.5c0-1.6,0-3.1,0-4.7C242.2,448.4,242.2,450,241.1,451.5z"/>
		<path class="st22" d="M306.9,236c1.5,0.1,3.2-0.8,4.6,0.6C310,236.5,308.4,237.1,306.9,236z"/>
		<path class="st15" d="M4.7,294.2c0.2,0,0.4,0.1,0.6,0.2c0,1.5,0,3,0,4.5C4,297.4,4.8,295.7,4.7,294.2z"/>
		<path class="st8" d="M251.7,428.3c-0.1,0.2-0.1,0.4-0.2,0.6c-1.5,0-3,0-4.4,0C248.5,427.7,250.1,428.4,251.7,428.3z"/>
		<path class="st23" d="M5.2,277.7c-0.1,1.5,0.7,3.2-0.6,4.6C4.8,280.8,4,279.1,5.2,277.7z"/>
		<path class="st24" d="M239.7,347.4c0-1.5,0-3,0-4.5c0.1-0.3,0.3-0.4,0.6-0.1C240.2,344.4,240.9,346,239.7,347.4z"/>
		<path class="st13" d="M240.3,342.8c-0.2,0-0.4,0.1-0.6,0.1c0-1.3,0-2.6,0-3.9C240.9,340.2,240.2,341.6,240.3,342.8z"/>
		<path class="st18" d="M380.4,238c-1.3,0-2.6,0-3.9,0c-0.2-0.2-0.2-0.3-0.1-0.4c0.1-0.1,0.2-0.1,0.3-0.1
			C377.9,237.5,379.3,236.8,380.4,238z"/>
		<path class="st11" d="M81.8,1.5C80.5,1.4,79,2,77.9,0.9C79.2,1,80.6,0.2,81.8,1.5z"/>
		<path class="st14" d="M376.7,237.5c0,0.2-0.1,0.4-0.1,0.5c-1.2,0-2.5,0-3.7,0C374,236.9,375.4,237.5,376.7,237.5z"/>
		<path class="st25" d="M195.3,194.6c-0.2,1.2,0.9,2.7-0.7,3.7C194.9,197.1,194.1,195.7,195.3,194.6z"/>
		<path class="st8" d="M61.6,112.3c0.9,1.2,0.9,2.5,0,3.8C61.6,114.8,61.6,113.6,61.6,112.3z"/>
		<path class="st26" d="M81,17.2c1,0.1,1.9,0.1,2.9,0.2c1.5,0.7,3.1-0.1,4.6,0.6c1.6,1.1,3.7,0.3,5.2,1.5c1.8,2.2,2.1,5,2.9,7.6
			c2.9,9.6,7.9,17.5,17.7,21.3c5.8,2.3,11.8,3.8,17.9,5.3c6.9,1.7,13.6,4,19.8,7.7c3,5.5,5.2,11.2,6.2,17.4c0.1,0.7,0.5,1.3,0.8,2
			c0.7,1.5-0.2,3.1,0.6,4.6c0.1,0.7,0.1,1.4,0.2,2.1c0.4,3.8,0.4,7.6,0,11.3c-0.1,0.7-0.1,1.4-0.2,2.1c-0.7,1.7,0.2,3.6-0.6,5.3
			c-0.1,0.5-0.1,0.9-0.2,1.4c-0.7,1.2,0.1,2.6-0.6,3.9c-0.1,0.2-0.1,0.4-0.2,0.6c-0.7,1.2,0.1,2.6-0.6,3.9
			c-2.3,5.7-3.2,11.8-5.1,17.6c-2.7,8.4-5.8,16.7-9.5,24.7c-12.7,27.2-27.6,53.2-44.6,77.9c-2.6,3.7-5.4,7.3-8,11
			c-2.5,3.4-2.3,7.4,0.3,9.6c3.4,2.9,8.1,3,11-0.2c3.7-4,6.7-8.5,10.2-12.6c6.3-7.5,13.9-13.2,22.1-18.2c7.7-4.7,16-7.8,24.8-9.8
			c2.5-0.6,5.1-0.9,7.6-1.3c1.7-0.7,3.6,0.2,5.3-0.6c1-0.1,1.9-0.1,2.9-0.2c2.8-0.4,5.6-0.4,8.3,0c1.2,0.1,2.4,0.1,3.6,0.2
			c1.7,0.7,3.6-0.2,5.4,0.6c0.5,0.1,0.9,0.1,1.4,0.2c1.9,0.1,2.9,1,2.9,3c0.1,0.7,0.1,1.4,0.2,2.1c0.6,1.2-0.1,2.6,0.6,3.9
			c0.1,0.5,0.1,0.9,0.2,1.4c0.7,1.2-0.1,2.6,0.6,3.9c1.3,10.5,4.7,20.5,8.9,30.2c2.9,6.5,6.4,12.7,10.5,18.6c0.4,0.6,1,1.1,0.9,1.9
			s1.5,1.5,0.2,2.2c-0.7,0.4-1.7,0.3-2.5-0.3c-2.3-1.8-4.5-3.8-7-5.3c-6.3-3.8-13-6.8-20.4-7.8c-0.6-0.1-1.1-0.5-1.6-0.8
			c-1.2-0.7-2.6,0.1-3.8-0.6c-0.5-0.1-0.9-0.1-1.4-0.2c-3.3-0.4-6.6-0.5-9.8,0c-6.9,1.1-13.6,2.6-19,7.6c-5.3,4.9-8,10.8-7.9,17.9
			c-0.4,1.3-0.5,2.6,0,3.9c0,10.2,5.4,17.3,13.5,22.3c9.1,5.6,19.4,8.1,30,9.2c1.2,0.7,2.6-0.1,3.9,0.6c0.5,0.1,0.9,0.1,1.4,0.2
			c1.7,0.7,3.6-0.2,5.4,0.5c0.7,0.1,1.4,0.1,2.1,0.2c2,0.8,4.1-0.2,6.1,0.6c0.7,0.1,1.4,0.1,2.1,0.2c2.5,0.8,5.1-0.2,7.6,0.5
			c0.5,0.1,0.9,0.1,1.4,0.2c1.7,0.8,3.6-0.4,5.2,0.8c0.1,0.5,0.1,0.9,0.2,1.4c0.5,6.5,0.5,13,0,19.6c-1.5,5.9-2.8,11.9-5.4,17.5
			c-3.8,8.2-9.5,14.9-15.7,21.3c-1.2,2.3-2.7,4.3-5.2,5.2c-4,2.5-8,5.1-12,7.6c-4.6,2.8-9.6,4.7-14.5,6.9c-5.3,2.4-6.3,8.5-2.2,12.7
			c0.9,1,1.9,1.5,3.2,1.5c4.7,0.6,9.4,0.1,14.1,0.3c3.5-0.2,7.1,0.3,10.6-0.3c0.5,0,1,0,1.5,0c2,0.8,4.1-0.2,6.1,0.6
			c3.1,0.8,6.3,1.3,9.2,2.6c5.1,2.1,8.5,6.2,11.1,11c0.6,1.6,0.3,2.7-1.7,2.6c-2.1,0-4.2,0-6.3,0c-2.4,0.3-5-0.7-7.3,0.7
			c-5.7,0.3-11.3-0.3-17,0.3c-2.5,0.1-4.9,0.1-7.4,0.2c-6.5,0.5-13,0.5-19.6,0c-2-0.1-3.9-0.1-5.9-0.2c-3.2-0.8-6.6,0.2-9.8-0.6
			c-1-0.1-1.9-0.1-2.9-0.2c-1.7-0.7-3.6,0.2-5.4-0.6c-0.5-0.1-0.9-0.1-1.4-0.2c-1.5-0.7-3.1,0.1-4.6-0.6c-0.5-0.1-0.9-0.1-1.4-0.2
			c-1.2-0.7-2.6,0.1-3.9-0.6c-10.3-1.3-20.1-4.3-29.6-8.3c-14.6-6-27.2-14.9-38-26.3c-10.6-11.3-19.6-23.7-25.5-38.1
			c-0.7-1.8-1.7-3.5-2.5-5.3c0.1-11.5-2-22.7-3.9-34c-2.9-17.2-4.8-34.5-6.2-51.8c-0.6-7.1,0-14.1,0.3-21.2c1.3-8.7,4-17.1,7-25.4
			c6-17,13.9-33,22.2-48.9c7-13.3,14.1-26.5,19.2-40.6c2.6-7.1,4.3-14.5,5.5-22c0.5-4,0.5-8.1,0-12.1c-1.4-5.7-2.4-11.4-5.1-16.7
			c-6.5-13.1-16.8-22.3-29.1-29.4c-2.5-1.5-4.8-3.4-7.8-4.1c-0.5-0.6-0.5-1.4-0.4-2.1c1.8-10.7,5.5-20.8,10.1-30.6
			c5.8-2.5,11.6-4.7,17.9-5.5c1.5-0.7,3.1,0.1,4.6-0.6c1-0.1,1.9-0.1,2.9-0.2C74.4,16.8,77.7,16.8,81,17.2z"/>
		<path class="st26" d="M310,220c-11.2,0.3-21-3.8-30-10c-2.1-1.5-4-3.3-6-4.9c-0.9-1.1-1.3-2.7-3-2.8c-2.5-1.4-3.6-4.6-6.6-5.3
			c-1.3-0.4-2.4-1.2-3.8-1.1c-0.3,0-0.7-0.1-1-0.2c-0.8-0.2-1.6-0.2-2.4-0.4c-1.9-0.4-3.9-0.5-5.8,0.1c-0.3,0.1-0.6,0.3-0.9,0.4
			c-0.3,0.2-0.6,0.3-1,0.4c-1.6,0.1-3.1,0.2-4.6,0.7c-1.7,0.4-3.3,1.1-4.9,1.6c-2.2,0.5-4,1.5-5.7,3l0,0c-3.1,1.8-4.9,5.1-8.2,6.7
			c-1.8,0.4-3.1-0.8-4.5-1.5c-0.8-4.9-3.3-8.6-8-10.7c-0.9-0.4-1.7-1-2.1-2c-0.2-1.2,0.3-2.5-0.3-3.7c0-1,0-2-0.1-3
			c0.7-1.2-0.1-2.6,0.6-3.8c0.9-13.1,3.8-25.8,8.5-38.1c1.9-1.2,2.7-3.2,3.5-5.2c1.9-4.9,4.2-9.7,4.8-15c4.7-9.3,10.2-18.2,17.2-26
			c0.2-0.2,0.4-0.3,0.5-0.5c4.3-5.1,4.6-5.1,8.5,0.8c5.3,8.1,7.3,17.4,8.7,26.7c1,6.1,2,7.9,7.5,9.4c1.3-0.4,2.5-0.4,3.8,0
			c1.2-0.2,2.5-0.5,3.7-0.7c2-0.5,4-0.1,6-0.2c2.2,0,4.5,0,6.7,0c1.8,0.1,3.6-0.2,5.3,0.2c4.7,1.4,9.6,1.6,14.3,3
			c11.6,3.4,22.1,8.7,31.4,16.3c7.2,5.9,13.5,12.6,18.6,20.4c0.9,3.3,3.1,6.1,4.5,9.2c0.8,1.9,1.8,3.8,0.8,5.9
			c-2.3,7.1-8,11.6-13.2,16.2c-9.3,8.1-20.6,12.1-32.5,14.4c-1.4,0.3-3,0-4.5,0C313.9,219.6,312,219.6,310,220z"/>
		<path class="st27" d="M427.4,296.5c-6.5,10.6-8.9,22.9-14,34.1c-6.2,13.7-15.2,25-28.4,32.7c-5.9,3.4-6.7,3-12.5-1.3
			c-8.3-6.2-15.5-13.3-21.4-21.7c-5.7-8.1-10.5-16.7-14.2-25.8c-1.6-3.9-4.2-7.5-4.4-12c0.4-0.4,1-0.6,1.6-0.5c1,0.2,2,0.1,2.9-0.5
			c4.6-3,9.8-4,15-5.3c16.4-4.2,33.1-3.2,49.7-2.8c5.3,0.1,10.7,0.2,15.9,1.4c2,0.6,4,0.7,6.1,0.7
			C424.9,295.5,426.3,295.4,427.4,296.5z"/>
		<path class="st26" d="M232.2,272.5c-11.1-14.4-17.4-30.7-19.7-48.6c-0.1-1.7-1.3-4.2,2.3-2.9c14.3,5.7,27.5,13.3,39.6,22.8
			c7.2,5.6,14.1,11.6,20.5,18.2c12.6,12.8,28.1,19.6,45.4,23.5c5,1.1,7.4-1.6,10.6-4c0.9,1,0.7,2.1,0.4,3.2c-1,3-0.8,6.2-0.8,9.3
			c-0.1,1.3,0,2.6-0.6,3.7c-0.1,0.2-0.3,0.3-0.4,0.5c-1-0.3-2-0.6-3-0.9c-1.3-1.7-2.9-1.1-4.5-0.7c-3.4,1.3-6.9,1.3-10.5,1.7
			c-1.3,0.4-2.5,0.4-3.8,0c-0.5,0-1,0-1.4,0c-4-0.7-7.8,0-11.8,0.6c-3.5,0.5-7.1-0.1-10.7,0c-16.9-0.9-32.1-6.1-44.2-18.5
			c-0.7-1.3-1.2-2.7-1.8-4C236.7,273.6,234.7,272.8,232.2,272.5z"/>
		<path class="st28" d="M329.4,294.2c-0.5-4.4,0.5-8.6,1.5-12.8c0.5-0.7,1-1.4,1.5-2.1c1.2-0.7,2.4-1.5,3-2.7
			c2.4-4.7,5.9-8.8,8.9-13.1c4.1-3.1,8.5-5.5,13.5-6.6c7,0.4,13.9,0.3,20.4-2.7c1.4-0.1,2.8,0,4.3,0c1.2,0.1,2.5-0.3,3.7,0.3
			c5.4,1.7,10.9,2.6,16.2,4.7c12.4,4.9,20.8,13.5,26.3,25.4c0.8,0.9,0.3,2,0.4,3c-0.1,1.2,0.3,2.5-0.3,3.7l0,0c-2,3.6-5.4,3-8.3,2
			c-5.9-2-11.9-2.5-18-2.5c-10.4,0-20.9-0.1-31.3,0.1c-3.3,0.1-6.7,0.6-10,1c-8.1,1.2-16.2,2.8-23.6,6.5c-2.2,1.1-4.6,0.9-6.9,1.2
			c-0.5-0.5-1-1-1.4-1.5l-0.1-0.3C330.2,296.6,329.9,295.4,329.4,294.2z"/>
		<path class="st0" d="M166.3,305.4c-1.2-1.2-2.3-2.5-3.5-3.7c-4.9-4.9-4.2-12.2,1.6-16.2c2.6-1.8,5.5-2.8,8.6-3.2
			c1.8-0.4,3.6-0.4,5.4,0c16.2,2,28.6,9.7,36.6,24.2c0.5,0.8,0.7,1.8,1,2.7c0.5,1.8,3.1,3.7,1.6,5c-1.2,1.1-4.1,0.7-6.1,0.3
			c-6.7-1.1-13.6-1.3-20.3-2.2c-7.7-1-15.4-2.6-22.5-6C167.7,306.2,166.8,306.3,166.3,305.4z"/>
		<path class="st29" d="M24.2,255.4c1.1,1.2,0.6,2.6,0.6,3.9c-0.3,20.1,1.9,40,5.1,59.9c2,12.1,3.5,24.2,5.1,36.3
			c0.3,2.2,0,4.6-1.1,6.8c-5.1-11.8-8.1-24.1-10.5-36.6c-0.2-1.2-0.1-2.5-0.2-3.7c-0.6-1.2,0.1-2.6-0.6-3.9
			c-0.1-0.5-0.1-0.9-0.2-1.4c-0.7-1.7,0.2-3.6-0.6-5.4c-0.1-0.5-0.1-0.9-0.2-1.4c-0.7-2.5,0.2-5.1-0.6-7.6c-0.1-1.2-0.1-2.4-0.2-3.6
			c-0.4-6-0.4-12,0-18c0.1-1,0.1-1.9,0.2-2.9c0.8-2.2-0.2-4.6,0.6-6.8c0.1-0.5,0.1-0.9,0.2-1.4c0.7-1.5-0.1-3.1,0.6-4.6
			c0.1-0.2,0.1-0.4,0.2-0.6c0.7-1.2-0.1-2.6,0.6-3.9C23.2,258.7,23.4,257,24.2,255.4z"/>
		<path class="st29" d="M151.9,61.5c-4.6-0.3-8.1-3.5-12.5-4.6c-7.2-1.8-14.2-4.1-21.3-6.1c-12.7-3.5-19.5-12.4-22.8-24.6
			c-0.6-2.2-1.8-4.4-1.7-6.8c2.6,0,5.1,0.5,7.5,1.7c2,2.9,2.5,6.4,4,9.6c3,6.2,7.7,10.2,13.9,12.9c6.2,2.7,12.9,3.7,19.3,5.7
			c2.7,0.9,5.6,1.3,7.9,3.1C148.6,55.1,150.5,58.1,151.9,61.5z"/>
		<path class="st30" d="M146.1,52.4c-11.2-3.6-23.4-4.5-33.5-11.3c-7-4.7-10.1-11.9-11.5-20c2.4,0.3,4.6,1.2,6.8,2.3
			c1.3,0.5,1.5,1.8,2,3c2.4,6.2,6.6,10.7,12.9,13.1c4.3,1.6,8.7,3,13.1,4c1.4,0.3,2.9,0.6,4.2,1.4C142.6,47,144.6,49.5,146.1,52.4z"
			/>
		<path class="st31" d="M140.1,45c-8.7-0.8-16.9-3.3-24-8.1c-4.5-3.1-6.8-8.1-8.2-13.4c8.4,2.5,15.6,7.3,22.6,12.4
			C134.1,38.5,137.3,41.5,140.1,45z"/>
		<path class="st29" d="M45.7,23.4c0,3.9-2,7.1-3.5,10.5c-3,7.1-4.3,14.7-6.2,22.2c-1.7-0.7-3.5-1.5-5.2-2.2c-1.2-1.5-0.8-3.2-0.5-5
			c1.1-6.2,3.3-12.1,5-18.2C37.9,27.1,41.9,25.3,45.7,23.4z"/>
		<path class="st0" d="M262.8,219.4c-1.1,3.1-3.7,2.3-5.9,2.1c-1.8-0.2-3.6-0.9-5.3-1.3c-1.4-0.1-2.4-1.4-3.8-1.4
			c-3.1-0.1-4.7-2.8-7.7-4c2.4-2.2,4.6-4,7.3-5.1c5.7-2.4,6.5-2.4,9.9,1.6c1.5,1.8,3.2,3.4,4.8,5.1
			C262.4,217.3,263.8,218.1,262.8,219.4z"/>
		<path class="st32" d="M205.8,139.3c-1.6-2-0.8-4.1-0.7-6.3c0.3-6.5,2.1-12.6,4.2-18.7c2.2-6.1,6-10.9,11-14.5
			c3.2-2.3,5.9-5.3,9.6-6.8c-2.7,3.7-5.5,7.5-8.2,11.2c-6,6.7-10.6,14-11.4,23.2C208.8,131.3,207.3,135.3,205.8,139.3z"/>
		<path class="st33" d="M35.2,30.7c1,3.5-0.9,6.4-1.8,9.5c-1.3,4.5-2.7,8.9-2.7,13.7c-1.2-0.5-2.5-1-3.7-1.5
			c-0.8-1.1-1.9-2.1-1.6-3.6c0.7-3.8,0.8-7.7,2.3-11.2C29.8,34.7,31.7,31.9,35.2,30.7z"/>
		<path class="st34" d="M360.8,291.3c5.1-1.4,10.4-1.5,15.7-1.4c11.8,0.1,23.6-0.6,35.4,0.4c3,0.2,5.8,0.9,8.6,2
			c2.9,1.1,5.8,1.2,8.4-0.9c0,0.8-0.1,1.5-0.1,2.3c-3.2,1.7-6.6,0.9-9.9,0.8c-0.5-0.1-0.9-0.2-1.3-0.4c-2.8-1.2-5.7-1.6-8.7-1.6
			c-14.2,0-28.4,0-42.6,0C364.4,292.1,362.4,292.8,360.8,291.3z"/>
		<path class="st35" d="M210.3,127.3c-2-2.9,0.2-5.4,0.9-8c1.5-5.8,5.2-10.4,9.1-14.8c0.3-0.3,0.9-0.2,1.4-0.4
			c-2.9,5.7-5.7,11.3-8.5,17C212.2,123.2,211.2,125.3,210.3,127.3z"/>
		<path class="st36" d="M27.8,37.5c0.3,3.1-0.1,6.2-1,9.1c-0.6,2.1-0.3,3.9,0.2,5.8c-8-2.7-8-2.7-3.3-9.7
			C24.9,40.8,25.7,38.6,27.8,37.5z"/>
		<path class="st32" d="M269.5,94.5c0.1-1.6,0.9-1.2,1.6-0.4c3.1,3.4,6.3,6.5,6.9,11.5c0.6,4.5,2.5,8.8,2.1,13.4
			c-3.6-0.2-1.8-3.5-2.9-5.1c-0.6-5.8-2.1-11.2-6-15.7C270.5,96.9,269.6,95.9,269.5,94.5z"/>
		<path class="st37" d="M428.3,294.3c-0.1,0.2-0.1,0.5-0.2,0.7c-3.4,1.8-6.9,1.1-10.4,0.4c-1.3,0.1-2.6-0.1-3.8-0.8
			c-13.1-1.6-26.2-0.9-39.4-1c-2.4,0-4.7,0-7.1,0c-0.5,0-0.9-0.2-1.3-0.4c-0.1-0.2-0.2-0.4-0.3-0.6c0.2-0.5,0.5-0.8,1-0.7
			c13.4,0,26.8,0,40.2,0c3.9,0,7.7,0.5,11.3,1.9C421.7,295.1,425.1,293.2,428.3,294.3z"/>
		<path class="st38" d="M378.1,254.6c-0.5,2.3-2.5,1.8-4.1,2.4c-3.7,1.3-7.7,0-11.4,1.6c-1.2,0.5-3.5-0.1-4.7-1.6
			c3-0.8,6-1.6,8.9-2.5c1.2-0.5,2.4-0.2,3.6-0.2c1.6-0.1,3.2,0.3,4.7-0.3c1,0,2,0,3,0c0.3,0.1,0.4,0.3,0.3,0.4
			C378.2,254.5,378.2,254.6,378.1,254.6z"/>
		<path class="st39" d="M228.5,125.1c0.8,0.7,0.8,1.6,0.6,2.4c-1.9,5.7-3.1,11.7-6.5,16.8c-0.6,0.9-1.1,1.7-2.3,1
			C222,138.2,225.6,131.8,228.5,125.1z"/>
		<path class="st40" d="M211.9,193.9c3.7,2.2,7.8,3.8,9.5,8.4c0.6,1.5,0.7,2.8,0.2,4.2c-1.3,0.2-2.2-0.5-3-1.3
			c-1.7-3.1-4.7-5.1-7.1-7.6c-0.2-0.3-0.2-0.7-0.3-1.1C211.2,195.7,211,194.7,211.9,193.9z"/>
		<path class="st41" d="M360.8,291.3c1.7,0,3.5,0,5.2,0c0.2,0.2,0.3,0.3,0.2,0.5c-0.1,0.2-0.2,0.2-0.2,0.2c-2.7,1.7-5.8,1.1-8.7,1.6
			c-6.9,1.3-13.5,3.1-19.8,6.2c-1.3,0.7-2.7,1.3-4.2,1.5c-0.4,0-0.8-0.1-1.1-0.4c-0.5-0.5-1-0.9-1.4-1.4c0.1-0.8,0.4-1.8,1.3-1.5
			c3,1.2,5.1-0.9,7.6-1.8C346.6,293.8,353.5,291.6,360.8,291.3z"/>
		<path class="st42" d="M384.9,182.7c-2.3-6.5-5.6-12.5-9.9-17.9c-0.7-2.1,0.2-2,1.6-1.1c2,1.3,3.5,3.1,5,4.9
			c2,3.4,4.2,6.7,4.5,10.8C386.2,180.6,386.9,182.2,384.9,182.7z"/>
		<path class="st43" d="M344.4,263.5c1,1.5-0.3,2.2-1.1,3.1c-2.6,2.9-4.5,6.4-6.5,9.7c-0.9,1.5-1.6,3.8-4.3,3
			C335.6,273.4,338.7,267.5,344.4,263.5z"/>
		<path class="st44" d="M384.9,182.7c1.8-4-1-7.2-2.1-10.7c-0.4-1.3-1.8-2.1-1.8-3.5c0.8-0.4,1.1,0.3,1.5,0.7
			c5.2,5.8,5.6,12.4,2.9,19.4C386.1,186.6,384.2,184.8,384.9,182.7z"/>
		<path class="st45" d="M271.2,98.1c0.5-0.1,1.3-0.3,1.3-0.2c2.5,5,6.3,9.7,4.7,15.9C275.1,108.6,273.2,103.4,271.2,98.1z"/>
		<path class="st46" d="M211.9,197.7c3,1.9,6.3,3.5,6.7,7.6c-2-0.4-3.8-1.7-5.9-1.6c-0.6-0.2-1.1-0.5-1.4-1.2
			C211.2,200.8,210.7,199.2,211.9,197.7z"/>
		<path class="st47" d="M232.2,272.5c4-2.1,5.1,1.2,6.6,3.7c0.7,1.2,0.9,2.5,0.7,3.9C237,277.7,234.2,275.5,232.2,272.5z"/>
		<path class="st39" d="M366.1,189.5c0-3.8-2.2-6.7-3.8-9.9c-0.8-1.7-1.7-3.3-1.4-5.3c2.5,3.1,4.4,6.6,6,10.3
			C367.7,186.6,367.6,188.1,366.1,189.5z"/>
		<path class="st48" d="M283.8,298.6c4.9-1.3,10,0,14.8-1.5c2.8-0.9,5.2-0.5,7.6,1c-0.3,0.8-1,0.7-1.6,0.5c-2.9-0.3-5.8,0.1-8.7,0.5
			c-3.3-0.1-6.6,0.3-9.9-0.2C285.3,298.8,284.5,298.7,283.8,298.6z"/>
		<path class="st49" d="M382.6,169.2c-0.5-0.2-1-0.5-1.5-0.7c-1.5-1.4-3-2.7-4.5-4.1c-0.8-0.8-1.4-1-1.5,0.4c-0.8-1-1.5-2-2.3-3
			c0.9-1.3,1.8-0.4,2.5,0.1C378.1,163.9,381.3,165.6,382.6,169.2z"/>
		<path class="st12" d="M196.9,396.7c1.7-1.7,3.5-3.5,5.2-5.2c1.5,2.3,0.5,4.7-2.1,4.7C198.9,396.2,198.2,398.5,196.9,396.7z"/>
		<path class="st50" d="M226.1,208.1c2.5-2.5,4.4-5.8,8.2-6.7c-1.6,3.2-4.8,4.9-7.1,7.4C227.2,208.8,226.5,208.3,226.1,208.1z"/>
		<path class="st51" d="M239.6,197.8c1.6-0.9,3.3-1.5,5.2-1.6c1.6-0.7,3.3-0.2,4.9-0.3c0.4-0.1,0.8,0.1,1.1,0.4c-3.8,1-7.5,2-11.3,3
			C239.1,198.7,239.2,198.2,239.6,197.8z"/>
		<path class="st52" d="M164.7,443.3c6.5,0,13,0,19.6,0C177.7,444.4,171.2,444.4,164.7,443.3z"/>
		<path class="st53" d="M223.2,352.7c0-6.5,0-13,0-19.6C224.3,339.6,224.3,346.2,223.2,352.7z"/>
		<path class="st54" d="M20.9,280.7c0,6,0,12,0,18C19.9,292.8,19.9,286.8,20.9,280.7z"/>
		<path class="st55" d="M191.6,443.1c4.2-1.4,8.6-0.3,12.8-0.6c1.5-0.1,3-0.1,4.5-0.1c0.3-0.2,0.6-0.2,0.8,0.2
			C203.7,444,197.7,443,191.6,443.1z"/>
		<path class="st56" d="M286,298.9c3.5-0.1,7-0.2,10.5-0.2c2-0.3,4-0.6,6,0.2C297,299.9,291.5,299.9,286,298.9z"/>
		<path class="st57" d="M417.7,295c3.5,0.7,6.9,0.8,10.4,0c-0.3,0.5-0.5,1-0.8,1.5c-3.2-0.3-6.5,0.7-9.6-0.8
			c-0.2-0.2-0.3-0.3-0.2-0.5C417.6,295.1,417.6,295,417.7,295z"/>
		<path class="st58" d="M185.6,426c-4.7-0.3-9.5,0.8-14.2-0.6c4.8,0,9.6,0,14.3,0c0.2,0.2,0.2,0.3,0.1,0.5
			C185.8,425.9,185.7,426,185.6,426z"/>
		<path class="st59" d="M428.3,294.3c-3.3-0.3-6.8,1.7-9.9-0.8c3.5,0,6.9,0,10.4,0C428.7,293.8,428.5,294,428.3,294.3z"/>
		<path class="st60" d="M239.6,197.8c0,0.5,0,0.9,0,1.4c-1.8,0.7-3.3,2.1-5.3,2.2C235,198.7,237.4,198.3,239.6,197.8z"/>
		<path class="st61" d="M78,106.3c1,4,1.1,8.1,0,12.1C78,114.4,78,110.3,78,106.3z"/>
		<path class="st61" d="M159.6,98.9c0-3.8,0-7.6,0-11.3C160.6,91.4,160.7,95.2,159.6,98.9z"/>
		<path class="st62" d="M215.7,441.8c1.9,0,3.9-0.1,5.8,0c1.8,0.1,2.4-0.7,2.4-2.3c1.2,1.8,1,3-1.5,3c-2.3,0-4.6,0-6.9-0.1
			c-0.2-0.2-0.2-0.4-0.1-0.5C215.6,441.8,215.7,441.8,215.7,441.8z"/>
		<path class="st63" d="M185.6,426c0-0.2,0.1-0.4,0.1-0.6c3.5,0,6.9,0,10.4,0C192.7,426.7,189.1,425.7,185.6,426z"/>
		<path class="st64" d="M81,17.2c-3.3,0-6.6,0-9.8,0C74.4,16.1,77.7,16.1,81,17.2z"/>
		<path class="st64" d="M149,442.6c3.3,0.2,6.6-0.8,9.8,0.6C155.5,443,152.2,444,149,442.6z"/>
		<path class="st50" d="M250.8,196.2c-0.3,0-0.5,0-0.8,0c-0.2-0.2-0.3-0.3-0.2-0.5s0.1-0.3,0.2-0.3l0,0c3.3-1.3,6.5-0.7,9.8,0l0,0
			c0.2,0.2,0.3,0.3,0.2,0.5c-0.1,0.2-0.2,0.3-0.2,0.3C256.8,196.2,253.8,196.2,250.8,196.2z"/>
		<path class="st58" d="M171.4,267.2c3.3-1.1,6.6-1.1,9.8,0C178,267.2,174.7,267.2,171.4,267.2z"/>
		<path class="st65" d="M247.8,218.7c1.9-1.3,2.8,0.2,3.8,1.4c0,0.3,0,0.6,0,0.8C249.7,221.1,248.6,220.2,247.8,218.7z"/>
		<path class="st66" d="M182.8,214.1c-2.8,0-5.6,0-8.3,0C177.2,213,180,213,182.8,214.1z"/>
		<path class="st67" d="M271,202.2c2.1-0.5,2.5-0.1,3,2.8C272.6,204.5,271.8,203.4,271,202.2z"/>
		<path class="st68" d="M302.5,298.9c-2-0.1-4-0.1-6-0.2c2.7-1,5.4-1,8.1,0C303.9,298.7,303.2,298.8,302.5,298.9z"/>
		<path class="st69" d="M216.5,330.8c-2.5-0.1-5.1,0.8-7.6-0.6C211.4,330.4,214,329.5,216.5,330.8z"/>
		<path class="st70" d="M21.1,302.4c1.3,2.4,0.5,5.1,0.6,7.6C20.4,307.6,21.3,305,21.1,302.4z"/>
		<path class="st71" d="M211.9,193.9c0,1,0,2,0,3c-0.2,0.1-0.3,0.2-0.5,0.3c-0.3-0.2-0.6-0.4-0.6-0.8c0.1-1.1-0.2-2.2,0.2-3.2
			c0.1-1,0.2-2,0.3-2.9C212.3,191.3,211.7,192.7,211.9,193.9z"/>
		<path class="st72" d="M215.7,441.8c-0.1,0.2-0.1,0.4-0.2,0.6c-1.9,0.1-3.9,0.1-5.8,0.2c-0.3-0.1-0.5-0.1-0.8-0.2
			C211.1,441.1,213.5,442,215.7,441.8z"/>
		<path class="st73" d="M291.3,134.7c-2.3,0-4.6,0-6.9,0c-0.2-0.2-0.2-0.3-0.1-0.4c0.1-0.1,0.2-0.2,0.3-0.2c2.2,0,4.4,0,6.6,0
			c0.3,0.1,0.4,0.2,0.3,0.3C291.4,134.6,291.4,134.7,291.3,134.7z"/>
		<path class="st74" d="M21.7,271c-0.1,2.3,0.7,4.7-0.6,6.8C21.2,275.6,20.4,273.2,21.7,271z"/>
		<path class="st52" d="M203.7,425.9c-2-0.1-4.2,0.7-6.1-0.6C199.7,425.5,201.8,424.6,203.7,425.9z"/>
		<path class="st75" d="M284.6,134.1c0,0.2-0.1,0.4-0.1,0.6c-2,0-4,0-5.9,0C280.4,133.5,282.5,134.3,284.6,134.1z"/>
		<path class="st76" d="M214.9,221c-2.7-0.6-2.1,1.5-2.3,2.9c-0.9-1.1-1-2.4-0.1-3.3C213.1,219.8,214.2,219.9,214.9,221z"/>
		<path class="st77" d="M310,220c2-0.9,3.9-1,5.9,0C313.9,220,312,220,310,220z"/>
		<path class="st78" d="M262.8,219.4c-0.2-1-0.5-2-0.7-3.1c1,0.8,2,1.6,3,2.5C264.4,219.5,263.6,219.4,262.8,219.4z"/>
		<path class="st58" d="M206.7,330.1c-2-0.1-4.2,0.7-6.1-0.6C202.7,329.7,204.8,328.8,206.7,330.1z"/>
		<path class="st79" d="M211.9,202.8c0.3,0.3,0.5,0.5,0.8,0.8c-0.8,0.3-1.6,1.2-2.5,0.4c-0.7-0.6,0.1-1.3,0.3-1.9
			c0.2-0.3,0.4-0.3,0.7-0.3C211.4,202.1,211.6,202.6,211.9,202.8z"/>
		<path class="st80" d="M166.3,305.4c0.7,0.3,1.8-0.4,2.2,0.8c-0.5,0.8-1.2,1.4-2.1,1.1C165.4,306.9,166.1,306,166.3,305.4z"/>
		<path class="st81" d="M332.3,301c0.3,0,0.6,0,0.9,0c0.9-0.6,1.8-0.5,2.8-0.2c0.4,1.9-0.8,1.7-2,1.7c-0.5,0-0.9,0-1.4,0
			C332.4,302,332.4,301.5,332.3,301z"/>
		<path class="st82" d="M291.3,134.7c0-0.2-0.1-0.4-0.1-0.6c1.8,0.1,3.6-0.6,5.3,0.5C294.8,134.7,293,134.7,291.3,134.7z"/>
		<path class="st83" d="M178.3,282.2c-1.8,0-3.6,0-5.4,0C174.7,281.2,176.5,281.1,178.3,282.2z"/>
		<path class="st66" d="M140.7,441.8c1.8,0.1,3.7-0.7,5.4,0.6C144.3,442.3,142.4,443.1,140.7,441.8z"/>
		<path class="st55" d="M223,331.8c-1.7-0.5-3.6,0.6-5.2-0.8C219.6,331.2,221.5,330.1,223,331.8z"/>
		<path class="st69" d="M158.8,106.4c0.1-1.8-0.7-3.7,0.6-5.3C159.3,102.9,160.1,104.7,158.8,106.4z"/>
		<path class="st84" d="M196.1,218c-0.6-1.4-1.6-2.4-2.9-3C195.6,214.5,196.6,215.5,196.1,218z"/>
		<path class="st69" d="M191.8,214.8c-1.8-0.1-3.7,0.7-5.4-0.6C188.2,214.3,190.1,213.6,191.8,214.8z"/>
		<path class="st85" d="M171.5,214.2c-1.7,1.3-3.6,0.5-5.3,0.6C167.9,213.5,169.8,214.4,171.5,214.2z"/>
		<path class="st86" d="M198.5,329.3c-1.8-0.1-3.7,0.7-5.4-0.5C194.9,328.9,196.8,328.1,198.5,329.3z"/>
		<path class="st87" d="M21.9,311.4c1.2,1.7,0.5,3.6,0.6,5.4C21.2,315.1,22,313.2,21.9,311.4z"/>
		<path class="st88" d="M321.9,296.4c1.7-0.7,3.4-1.7,4.5,0.7C325,296.4,323.4,296.5,321.9,296.4z"/>
		<path class="st89" d="M211,202.2c-0.2,0-0.4,0-0.6,0c0-1.8,0-3.5,0-5.3c0.2-0.3,0.4-0.3,0.6,0.1l0.2-0.1
			C211.5,198.7,212,200.5,211,202.2z"/>
		<path class="st90" d="M259.8,196.2c0-0.3,0-0.5,0-0.8c1.7,0,3.3,0.1,4.5,1.5C262.8,196.7,261.3,196.4,259.8,196.2z"/>
		<path class="st91" d="M375.1,253.9c-1.4,1.2-3,0.5-4.6,0.6c-0.2-0.2-0.3-0.3-0.2-0.5c0.1-0.1,0.2-0.2,0.3-0.2
			C372.1,253.9,373.6,253.9,375.1,253.9z"/>
		<path class="st64" d="M88.5,18c-1.5-0.1-3.2,0.6-4.6-0.6C85.4,17.4,87,16.7,88.5,18z"/>
		<path class="st86" d="M68.3,17.4c-1.4,1.2-3.1,0.5-4.6,0.6C65.1,16.7,66.7,17.5,68.3,17.4z"/>
		<path class="st84" d="M159.4,85.5c-1.2-1.4-0.5-3-0.6-4.6C160.1,82.3,159.4,83.9,159.4,85.5z"/>
		<path class="st92" d="M134.8,441.1c1.5,0.1,3.2-0.6,4.6,0.6C137.8,441.6,136.2,442.3,134.8,441.1z"/>
		<path class="st93" d="M378.1,254.6c0-0.2,0-0.4,0-0.6c1.5,0,3,0,4.5,0c0.3,0.1,0.4,0.3,0.3,0.4c-0.1,0.2-0.1,0.3-0.2,0.3
			C381.1,254.6,379.6,254.6,378.1,254.6z"/>
		<path class="st94" d="M22.5,265c-0.1,1.5,0.6,3.2-0.6,4.6C21.9,268.1,21.2,266.4,22.5,265z"/>
		<path class="st95" d="M429,291.3c0-1.3,0-2.6,0-3.8c0.3-0.3,0.5-0.3,0.7,0.1C429.6,288.8,430.2,290.2,429,291.3z"/>
		<path class="st96" d="M429.7,287.5c-0.2,0-0.5,0-0.7-0.1c0-1-0.1-1.9-0.1-2.9C431.3,285,429,286.7,429.7,287.5z"/>
		<path class="st61" d="M182.7,267.4c1.3,0.1,2.7-0.6,3.8,0.6C185.2,267.9,183.8,268.5,182.7,267.4z"/>
		<path class="st58" d="M157.4,116.2c0-1.3-0.5-2.7,0.6-3.9C157.9,113.6,158.5,115,157.4,116.2z"/>
		<path class="st97" d="M23.2,260.5c0,1.3,0.6,2.7-0.6,3.9C22.7,263.1,22.1,261.7,23.2,260.5z"/>
		<path class="st98" d="M274.8,135.4c-1.3,0-2.5,0-3.8,0C272.3,134.5,273.5,134.5,274.8,135.4z"/>
		<path class="st99" d="M382.6,254.5c0-0.2-0.1-0.4-0.1-0.7c1.3,0.1,2.7-0.5,3.8,0.6C385.1,254.5,383.8,254.5,382.6,254.5z"/>
		<path class="st100" d="M307.7,298.1c1.3,0,2.5,0,3.8,0C310.2,299.1,308.9,299,307.7,298.1z"/>
		<path class="st101" d="M158.1,111.7c0-1.3-0.6-2.7,0.6-3.9C158.6,109.1,159.2,110.5,158.1,111.7z"/>
		<path class="st102" d="M370.6,253.9c0,0.2-0.1,0.4-0.1,0.6c-1.2,0-2.5,0-3.7-0.1C368,253.4,369.3,254,370.6,253.9z"/>
		<path class="st58" d="M129.5,440.3c1.3,0,2.7-0.5,3.9,0.6C132.1,440.9,130.7,441.4,129.5,440.3z"/>
		<path class="st84" d="M144.4,296.6c-1-1.3-1-2.6,0-3.9C144.4,294,144.4,295.3,144.4,296.6z"/>
		<path class="st69" d="M191.7,328.6c-1.3-0.1-2.7,0.5-3.9-0.6C189.2,328.1,190.6,327.5,191.7,328.6z"/>
		<path class="st85" d="M197.6,229.2c-1.1-1.2-0.5-2.5-0.6-3.9C198.2,226.5,197.6,227.9,197.6,229.2z"/>
		<path class="st103" d="M196.8,223.9c-1.1-1.1-0.5-2.5-0.6-3.9C197.4,221.2,196.8,222.6,196.8,223.9z"/>
		<path class="st79" d="M209.4,201.1c-0.2,0.7-0.5,0.6-0.8,0.4c-0.3-0.2-0.7-0.3-0.8-0.6c-0.2-0.5,0.1-0.7,0.6-0.5
			C208.7,200.6,209.1,200.9,209.4,201.1z"/>
		<path class="st104" d="M22.6,318.1c1.1,1.1,0.5,2.5,0.6,3.9C22.1,320.8,22.7,319.4,22.6,318.1z"/>
		<path class="st105" d="M211.8,183.4c0,1.3,0.6,2.7-0.6,3.8C211.3,186,210.7,184.6,211.8,183.4z"/>
		<path class="st106" d="M211,197c-0.2,0-0.4-0.1-0.6-0.1c0.1-1.3-0.5-2.6,0.6-3.7C211,194.5,211,195.7,211,197z"/>
		<path d="M304.8,162.4c6.4,1.1,10.2,5.1,12,11.2c0.5,1.8,0.5,3.6,0,5.4c-1.5,5.6-4.8,9.5-10.5,11.2c-2,0.8-4.1-0.2-6.1,0.6
			c-6.5-1.8-10.7-5.9-11.9-12.5c-1.1-5.9,3.3-13.4,10.5-15.8c0.7-0.2,1.4-0.4,2.1-0.7C302.2,162.5,303.6,161.7,304.8,162.4z"/>
		<path class="st107" d="M259.8,195.4c-3.3,0-6.5,0-9.8,0c0.3-0.3,0.5-0.5,0.8-0.8c2.2-0.5,4.5-0.4,6.7,0
			C258.4,194.8,259.3,194.5,259.8,195.4z"/>
		<path class="st108" d="M257.6,194.6c-2.2,0-4.5,0-6.7,0C253.1,193.6,255.3,193.6,257.6,194.6z"/>
		<path class="st109" d="M300.2,190.8c1.9-1.3,4.1-0.4,6.1-0.6C304.4,191.6,302.2,190.7,300.2,190.8z"/>
		<path class="st110" d="M316.7,179c0-1.8,0-3.6,0-5.4C317.8,175.5,317.8,177.3,316.7,179z"/>
		<path class="st111" d="M250,195.4c0,0.3,0,0.5,0,0.8c-1.8,0-3.5,0-5.3,0C246.4,194.8,248.3,195.7,250,195.4z"/>
		<path class="st112" d="M304.8,162.4c-1.3-0.1-2.7,0.5-3.8-0.6C302.2,161.9,303.6,161.3,304.8,162.4z"/>
		<path class="st113" d="M417.7,295c0,0.2,0,0.5,0,0.7c-13.5-1.7-27-1.4-40.5-1.6c-7.9-0.1-15.5,1.4-23.2,2.7c-1,0.2-2,0.2-2.9,0.4
			c-0.3-0.4-0.4-0.8-0.2-1.2c5.2-2.7,10.8-3,16.6-2.9c12,0,23.9,0,35.9,0c3.8,0,7.6,0.8,11.4,1.1C415.7,294.8,416.6,295.1,417.7,295
			z"/>
		<path class="st114" d="M351.1,296.5c0,0.2,0,0.5,0,0.7c-5,1.6-10.2,2.4-14.6,5.7c-0.8,0.6-1.9,0.5-2.6-0.4c0.7-0.5,1.5-1,2.2-1.5
			c0.1-0.1,0.2-0.3,0.4-0.5c3.4-1.9,6.9-3.3,10.7-4.2C348.5,296,349.9,295.3,351.1,296.5z"/>
		<path class="st115" d="M329.4,294.2c0.9,1.2,1.2,2.4-0.1,3.6C329.4,296.6,329.4,295.4,329.4,294.2z"/>
		<path class="st59" d="M366.1,292c0-0.2,0-0.5,0-0.7c14.7,0,29.3,0,44,0c3,0,5.9,0.2,8.4,2.2C401.1,290.6,383.5,292.6,366.1,292z"
			/>
		<path class="st116" d="M414.7,294.3c-16-1.3-31.9-0.6-47.9-0.7c-0.2-0.2-0.3-0.3-0.2-0.5c0.1-0.2,0.2-0.2,0.2-0.2
			c12.6,0,25.2,0,37.8,0C408,292.8,411.4,293.1,414.7,294.3z"/>
		<path class="st59" d="M336.1,301c-1,0-2,0-3,0c10.3-5.5,21.1-8.9,32.9-9c0,0.2,0,0.5,0,0.7c-7.2,1.7-14.7,2.1-21.7,4.8
			C341.6,298.6,338.9,299.9,336.1,301L336.1,301z"/>
		<path class="st81" d="M336.1,301c6.9-4.4,14.7-6.2,22.6-7.5c2.4-0.4,4.9-0.5,7.3-0.8c0.3,0,0.5,0,0.8,0c0,0.2,0,0.5,0,0.7
			c-5.3,0.8-10.6,1.2-15.7,3c-3.9,0.5-7.6,1.7-11.2,3.3C338.7,300.4,337.6,301.1,336.1,301z"/>
		<path class="st117" d="M211,202.2c0.1-1.8,0.2-3.5,0.2-5.3c0.2,0,0.4,0,0.6,0c0,0.2,0,0.5,0,0.7c0,1.7,0,3.4,0,5.1
			C211.4,202.9,211.2,202.6,211,202.2z"/>
	</g>
</g>
</svg>
