<?xml version="1.0" encoding="utf-8"?>
<!-- Generator: Adobe Illustrator 23.1.0, SVG Export Plug-In . SVG Version: 6.00 Build 0)  -->
<svg version="1.1" id="Calque_2" xmlns="http://www.w3.org/2000/svg" xmlns:xlink="http://www.w3.org/1999/xlink" x="0px" y="0px"
	 viewBox="0 0 500 500" style="enable-background:new 0 0 500 500;" xml:space="preserve">
<style type="text/css">
	.st0{fill:none;stroke:#111111;stroke-width:3;stroke-linecap:round;stroke-miterlimit:10;}
	.st1{fill:#1C1C1C;stroke:#111111;stroke-miterlimit:10;}
</style>
<line class="st0" x1="217.5" y1="319" x2="180.2" y2="401.8"/>
<line class="st0" x1="249.5" y1="115" x2="249.5" y2="97"/>
<line class="st0" x1="123.6" y1="157" x2="189.5" y2="206.5"/>
<line class="st0" x1="92.1" y1="294.5" x2="106.5" y2="290.5"/>
<line class="st0" x1="319.6" y1="403" x2="312.5" y2="388.5"/>
<line class="st0" x1="407.6" y1="294.5" x2="357.5" y2="280.5"/>
<line class="st0" x1="375.6" y1="157" x2="288.5" y2="221.5"/>
<polygon class="st1" points="251.4,119.6 251.4,246.5 287.9,220 "/>
<polygon class="st1" points="290.8,223.4 252.7,250 354.2,277.7 "/>
<polygon class="st1" points="252.7,253.9 356.5,282.8 313.8,385.4 "/>
<polygon class="st1" points="249.5,253.9 309.7,386.5 219.8,319 "/>
<polygon class="st1" points="246.2,253.9 215.8,319 109.9,291.7 "/>
<polygon class="st1" points="109.5,286.4 187.5,206.7 246.6,248.8 "/>
<polygon class="st1" points="247.4,117.7 190.3,204 247.4,246.5 "/>
</svg>
