<?xml version="1.0" encoding="utf-8"?>
<!-- Generator: Adobe Illustrator 23.1.0, SVG Export Plug-In . SVG Version: 6.00 Build 0)  -->
<svg version="1.1" xmlns="http://www.w3.org/2000/svg" xmlns:xlink="http://www.w3.org/1999/xlink" x="0px" y="0px"
	 viewBox="0 0 500 500" style="enable-background:new 0 0 500 500;" xml:space="preserve">
<style type="text/css">
	.st0{display:none;}
	.st1{display:inline;}
	.st2{fill:#111111;}
	.st3{fill:none;stroke:#111111;stroke-width:12;stroke-linecap:round;stroke-miterlimit:10;}
</style>
<g id="Calque_1" class="st0">
	<g class="st1">
		<circle cx="249.5" cy="198.5" r="84.5"/>
	</g>
	<path class="st1" d="M470,376.72c0-0.48-0.02-0.96-0.06-1.44C466.24,329.46,369.38,280,250.5,280C131,280,33.74,334.98,31,381
		l-0.5,25.5l0.28,24.26C30.9,441.42,39.58,450,50.24,450h399.14c11.39,0,20.62-9.23,20.62-20.62L470,376.72z"/>
</g>
<g id="Calque_2">
	<g>
		<path class="st2" d="M249.5,151c27.85,0,50.5,22.65,50.5,50.5S277.35,252,249.5,252S199,229.35,199,201.5S221.65,151,249.5,151
			 M249.5,136c-36.17,0-65.5,29.33-65.5,65.5s29.33,65.5,65.5,65.5s65.5-29.33,65.5-65.5S285.67,136,249.5,136L249.5,136z"/>
	</g>
	<g>
		<path class="st2" d="M249.23,283.62c13.69,0,49.06,6.56,82.34,17.17c17.62,5.61,32.62,11.73,43.39,17.69
			c12.68,7.02,15.8,11.74,16.44,12.98c-3.59,11.64-16.76,20.34-39.17,25.87c-24.22,5.98-52.99,6.67-72.53,6.67
			c-6.85,0-13.13-0.1-18.67-0.18c-4.35-0.07-8.1-0.12-11.33-0.12c-1.12,0-2.32,0-3.61,0c-1.44,0-2.97,0.01-4.59,0.01
			c-23.73,0-54.5-0.74-81.99-6.52c-20.97-4.41-46.8-13.38-51.43-31.1c0.6-1.12,3.65-5.62,16.22-12.05
			c10.61-5.44,25.44-10.9,42.89-15.81C199.27,289.2,234.75,283.62,249.23,283.62 M249.23,268.62c-33.86,0-163.94,26.17-155.87,60.4
			c11.32,48.01,107.48,49.69,148.14,49.69c3.07,0,5.82-0.01,8.2-0.01c7.18,0,17.72,0.31,30,0.31c45.62,0,115.27-4.23,126.33-44.14
			C415.42,301,283.09,268.62,249.23,268.62L249.23,268.62z"/>
	</g>
	<path class="st3" d="M420.96,188.84C433.78,214.3,441,243.06,441,273.5C441,377.61,356.61,462,252.5,462S64,377.61,64,273.5
		S148.39,85,252.5,85c44.35,0,85.13,15.32,117.32,40.95"/>
</g>
</svg>
